<svg width="33" height="33" viewBox="0 0 33 33" fill="none" xmlns="http://www.w3.org/2000/svg">
<path d="M16.5 33C25.6127 33 33 25.6127 33 16.5C33 7.3873 25.6127 0 16.5 0C7.3873 0 0 7.3873 0 16.5C0 25.6127 7.3873 33 16.5 33Z" fill="#0052B4"/>
<path d="M16.4993 6.45605L17.0335 8.10019H18.7622L17.3636 9.11629L17.8978 10.7604L16.4993 9.74426L15.1006 10.7604L15.6349 9.11629L14.2363 8.10019H15.965L16.4993 6.45605Z" fill="#FFDA44"/>
<path d="M9.39838 9.39747L10.9388 10.1823L12.1612 8.95996L11.8907 10.6673L13.431 11.4522L11.7236 11.7226L11.4531 13.4301L10.6683 11.8897L8.96094 12.1603L10.1833 10.9379L9.39838 9.39747Z" fill="#FFDA44"/>
<path d="M6.45703 16.4993L8.10117 15.965V14.2363L9.1172 15.635L10.7614 15.1007L9.74517 16.4993L10.7614 17.8978L9.1172 17.3637L8.10117 18.7622V17.0335L6.45703 16.4993Z" fill="#FFDA44"/>
<path d="M9.39838 23.6019L10.1832 22.0615L8.96094 20.8391L10.6684 21.1097L11.4531 19.5693L11.7236 21.2768L13.431 21.5472L11.8908 22.3321L12.1612 24.0394L10.9388 22.8171L9.39838 23.6019Z" fill="#FFDA44"/>
<path d="M16.4993 26.5425L15.965 24.8984H14.2363L15.635 23.8823L15.1006 22.2383L16.4993 23.2543L17.8978 22.2383L17.3636 23.8823L18.7622 24.8984H17.0335L16.4993 26.5425Z" fill="#FFDA44"/>
<path d="M23.6028 23.6019L22.0625 22.8171L20.84 24.0395L21.1105 22.332L19.5703 21.5472L21.2777 21.2768L21.5481 19.5693L22.3329 21.1097L24.0403 20.8391L22.8179 22.0616L23.6028 23.6019Z" fill="#FFDA44"/>
<path d="M26.5445 16.4993L24.9003 17.0335V18.7622L23.8842 17.3636L22.2402 17.8978L23.2563 16.4993L22.2402 15.1007L23.8843 15.635L24.9003 14.2363V15.9651L26.5445 16.4993Z" fill="#FFDA44"/>
<path d="M23.6028 9.3974L22.818 10.9378L24.0403 12.1602L22.3328 11.8896L21.5481 13.43L21.2777 11.7226L19.5703 11.452L21.1105 10.6673L20.84 8.95996L22.0625 10.1823L23.6028 9.3974Z" fill="#FFDA44"/>
</svg>
