<svg width="33" height="33" viewBox="0 0 33 33" fill="none" xmlns="http://www.w3.org/2000/svg">
<path d="M16.5 33C25.6127 33 33 25.6127 33 16.5C33 7.3873 25.6127 0 16.5 0C7.3873 0 0 7.3873 0 16.5C0 25.6127 7.3873 33 16.5 33Z" fill="#F0F0F0"/>
<path d="M15.7812 16.4997H32.9986C32.9986 15.0104 32.8001 13.5677 32.4302 12.1953H15.7812V16.4997Z" fill="#D80027"/>
<path d="M15.7812 7.89128H30.5768C29.5668 6.24309 28.2754 4.78626 26.7696 3.58691H15.7812V7.89128Z" fill="#D80027"/>
<path d="M16.5015 33C20.3847 33 23.9539 31.6579 26.7724 29.4131H6.23047C9.049 31.6579 12.6182 33 16.5015 33Z" fill="#D80027"/>
<path d="M2.42171 25.1091H30.5782C31.389 23.7859 32.0179 22.3396 32.4315 20.8047H0.568359C0.981955 22.3396 1.61082 23.7859 2.42171 25.1091Z" fill="#D80027"/>
<path d="M7.6431 2.57671H9.14673L7.7481 3.59281L8.28235 5.23694L6.88378 4.22084L5.48521 5.23694L5.9467 3.81659C4.71526 4.84236 3.63593 6.04415 2.74647 7.38323H3.22826L2.33797 8.03002C2.19927 8.2614 2.06624 8.49646 1.93875 8.735L2.36388 10.0435L1.57072 9.46719C1.37356 9.88491 1.19322 10.312 1.03112 10.7481L1.4995 12.1898H3.22826L1.82963 13.2059L2.36388 14.85L0.965314 13.8339L0.127553 14.4426C0.0436992 15.1166 0 15.8032 0 16.5H16.5C16.5 7.38735 16.5 6.31305 16.5 0C13.2405 0 10.202 0.945527 7.6431 2.57671ZM8.28235 14.85L6.88378 13.8339L5.48521 14.85L6.01947 13.2059L4.62083 12.1898H6.3496L6.88378 10.5456L7.41797 12.1898H9.14673L7.7481 13.2059L8.28235 14.85ZM7.7481 8.39933L8.28235 10.0435L6.88378 9.02736L5.48521 10.0435L6.01947 8.39933L4.62083 7.38323H6.3496L6.88378 5.7391L7.41797 7.38323H9.14673L7.7481 8.39933ZM14.2008 14.85L12.8023 13.8339L11.4037 14.85L11.9379 13.2059L10.5393 12.1898H12.2681L12.8023 10.5456L13.3364 12.1898H15.0652L13.6666 13.2059L14.2008 14.85ZM13.6666 8.39933L14.2008 10.0435L12.8023 9.02736L11.4037 10.0435L11.9379 8.39933L10.5393 7.38323H12.2681L12.8023 5.7391L13.3364 7.38323H15.0652L13.6666 8.39933ZM13.6666 3.59281L14.2008 5.23694L12.8023 4.22084L11.4037 5.23694L11.9379 3.59281L10.5393 2.57671H12.2681L12.8023 0.932572L13.3364 2.57671H15.0652L13.6666 3.59281Z" fill="#0052B4"/>
</svg>
