<svg width="33" height="33" viewBox="0 0 33 33" fill="none" xmlns="http://www.w3.org/2000/svg">
<path d="M16.5 33C25.6127 33 33 25.6127 33 16.5C33 7.3873 25.6127 0 16.5 0C7.3873 0 0 7.3873 0 16.5C0 25.6127 7.3873 33 16.5 33Z" fill="#6DA544"/>
<path d="M16.5015 6.45703L30.1319 16.5005L16.5015 26.544L2.87109 16.5005L16.5015 6.45703Z" fill="#FFDA44"/>
<path d="M16.5008 22.2389C19.6704 22.2389 22.2399 19.6695 22.2399 16.4998C22.2399 13.3302 19.6704 10.7607 16.5008 10.7607C13.3312 10.7607 10.7617 13.3302 10.7617 16.4998C10.7617 19.6695 13.3312 22.2389 16.5008 22.2389Z" fill="#F0F0F0"/>
<path d="M13.6294 16.1406C12.6314 16.1406 11.6683 16.2924 10.7617 16.5741C10.8019 19.7091 13.3545 22.2385 16.499 22.2385C18.4434 22.2385 20.1607 21.2706 21.1989 19.7913C19.4227 17.5679 16.6899 16.1406 13.6294 16.1406Z" fill="#0052B4"/>
<path d="M22.1332 17.5994C22.2023 17.2434 22.2396 16.8761 22.2396 16.4998C22.2396 13.3302 19.6701 10.7607 16.5005 10.7607C14.1355 10.7607 12.1052 12.1917 11.2266 14.2347C12.0032 14.0738 12.8073 13.989 13.631 13.989C16.9643 13.9889 19.9798 15.3746 22.1332 17.5994Z" fill="#0052B4"/>
</svg>
