<?xml version="1.0" encoding="utf-8"?>
<svg viewBox="0 0 1362 420" xmlns="http://www.w3.org/2000/svg">
  <path fill="#FFFFFF" opacity="1.000000" stroke="none" d=" M1215.000000,140.000000 C1215.000000,120.836357 1214.956299,102.172562 1215.016724,83.509117 C1215.052246,72.524200 1217.500854,70.797089 1227.481689,70.979156 C1233.645264,71.091599 1239.813599,70.933655 1245.978027,71.018814 C1252.042969,71.102600 1256.849854,73.059952 1260.970215,78.189552 C1268.780518,87.912804 1277.475952,96.922806 1285.754028,106.273064 C1291.270508,112.504189 1296.701172,118.811440 1303.160400,126.220299 C1303.570923,123.056122 1303.964844,121.403427 1303.971558,119.749161 C1304.023193,106.918106 1304.011353,94.086746 1303.995605,81.255508 C1303.986450,73.698814 1306.737305,70.986740 1314.233398,70.996590 C1324.565063,71.010170 1334.897217,71.057884 1345.228149,70.974663 C1350.113281,70.935303 1354.076172,73.076340 1354.060669,79.748581 C1353.947876,128.240479 1354.000366,176.732742 1353.999634,225.224899 C1353.999634,231.847336 1351.461792,233.494003 1344.291626,233.866318 C1334.153931,234.392731 1323.965942,234.141251 1313.804321,233.953201 C1306.259277,233.813568 1304.036011,231.321060 1304.004028,223.812378 C1303.982788,218.813278 1303.364502,213.713486 1304.135864,208.836304 C1305.617798,199.467133 1300.800293,193.148865 1295.284058,186.686371 C1285.759399,175.527908 1276.561523,164.090652 1267.209351,152.784531 C1266.917236,152.431473 1266.436523,152.234406 1265.000000,151.247635 C1265.000000,153.648987 1265.000000,155.305542 1265.000000,156.962097 C1265.000000,179.291824 1265.000122,201.621536 1265.000000,223.951263 C1265.000000,231.041428 1264.306274,233.108109 1257.642578,233.524384 C1246.097046,234.245621 1234.414307,234.099106 1222.881226,233.171997 C1216.372925,232.648788 1215.013184,229.771515 1215.008301,222.986359 C1214.988403,195.490921 1215.000000,167.995453 1215.000000,140.000000 z" style=""/>
  <path fill="#FFFFFF" opacity="1.000000" stroke="none" d=" M219.007492,237.000000 C201.664825,236.963486 184.995163,235.417404 169.691132,227.817947 C158.714722,222.367432 152.071548,213.172318 151.056854,200.660492 C150.417694,192.779510 150.093399,184.854965 150.045868,176.947449 C149.913712,154.966263 149.711731,132.977539 150.185883,111.005798 C150.318130,104.877998 151.810287,98.413658 154.240829,92.777397 C159.327209,80.982368 170.056290,75.581337 181.616669,72.073807 C199.882736,66.531700 218.816803,67.189987 237.460953,68.315331 C249.980240,69.070969 262.575378,71.561447 273.670380,78.863998 C284.716614,86.134453 289.573547,96.736198 289.818329,109.034981 C290.388245,137.666824 290.443665,166.327286 289.827606,194.957214 C289.478149,211.197479 282.717041,223.348587 265.055206,230.123383 C255.695496,233.713623 246.181229,235.631927 236.245087,236.021851 C230.660538,236.241013 225.084137,236.667145 219.007492,237.000000 M236.531769,115.022057 C226.992935,109.345276 216.836624,110.709343 206.971329,113.280281 C203.427063,114.203934 200.921860,117.880966 200.949265,122.497749 C201.067764,142.455826 200.925247,162.415482 201.054016,182.373413 C201.085159,187.198456 203.078400,190.730118 208.392990,192.165894 C216.122131,194.253952 223.868469,193.936874 231.509506,192.685013 C236.903625,191.801270 238.997208,188.119583 238.998398,182.335922 C239.002548,162.377151 239.061600,142.417923 238.915588,122.460220 C238.898880,120.176849 237.720688,117.901962 236.531769,115.022057 z" style=""/>
  <path fill="#FFFFFF" opacity="1.000000" stroke="none" d=" M410.000000,216.938904 C410.000000,207.619720 410.021057,198.791550 409.992767,189.963516 C409.973083,183.819672 407.168640,181.021851 401.007294,181.007462 C391.179962,180.984528 381.352478,181.008301 371.525055,181.022583 C371.211670,181.023041 370.898499,181.136322 370.000000,181.310394 C370.000000,189.953278 370.000000,198.712402 370.000000,207.471512 C370.000000,212.468567 370.000549,217.465607 369.999847,222.462662 C369.998688,231.228790 369.198395,233.323593 361.026733,233.733734 C349.015503,234.336578 336.924408,233.313858 324.866241,233.032303 C319.409760,232.904861 319.309875,228.645203 319.097107,225.068619 C318.741608,219.093307 319.000000,213.081467 319.000000,207.085007 C319.000000,165.442932 319.046173,123.800751 318.961243,82.158836 C318.944153,73.780121 321.563812,70.911072 330.321655,70.955925 C354.973114,71.082176 379.633820,70.643448 404.273071,71.205757 C412.212067,71.386932 420.341705,73.221130 427.946442,75.662521 C438.978027,79.204056 443.749481,88.916733 445.743073,99.228798 C447.782715,109.779091 448.028290,120.616951 445.155640,131.382889 C443.588318,137.256821 440.102936,140.978058 435.018890,144.328308 C437.392975,145.260544 439.401520,146.331879 441.543732,146.843781 C453.845917,149.783447 460.970764,162.876053 460.991699,173.893097 C461.023346,190.549866 461.000061,207.206741 460.999939,223.863571 C460.999878,231.604080 461.088959,232.705521 453.983643,233.281082 C442.117737,234.242340 430.086609,234.227386 418.200623,233.457275 C411.652039,233.033005 410.404816,230.345657 410.017487,223.425247 C409.905975,221.432739 410.000122,219.428696 410.000000,216.938904 M397.000000,128.342224 C396.999847,125.679718 397.435699,122.925171 396.897675,120.376198 C396.083710,116.520119 395.375153,112.232681 389.920685,111.934235 C383.420105,111.578545 376.929108,111.047791 370.363220,110.587921 C370.363220,121.248100 370.363220,131.095062 370.363220,141.000000 C375.218170,141.000000 379.710022,141.000000 384.201843,141.000000 C384.701050,141.000000 385.207062,141.053741 385.698486,140.991867 C392.818787,140.095520 396.929138,139.529556 397.000000,128.342224 z" style=""/>
  <path fill="#FFFFFF" opacity="1.000000" stroke="none" d=" M1182.357056,71.138062 C1186.868530,72.105621 1188.113647,74.786469 1188.043701,78.719650 C1187.898560,86.879074 1187.864624,95.045746 1188.036743,103.204109 C1188.222534,111.999962 1188.216797,113.385658 1177.268677,113.811020 C1159.306030,114.508904 1141.296509,114.000000 1123.306763,114.000000 C1121.680786,114.000000 1120.054810,114.000000 1118.217163,114.000000 C1118.217163,119.759880 1118.217163,125.162811 1118.217163,131.000000 C1132.298340,131.000000 1146.239746,130.996582 1160.181274,131.001419 C1167.374512,131.003922 1169.990845,133.571808 1169.998291,140.636917 C1170.006226,148.299210 1170.046387,155.961868 1169.983887,163.623642 C1169.940918,168.896744 1167.839111,170.970093 1162.489990,170.985489 C1147.853027,171.027588 1133.215942,170.999985 1118.289917,170.999985 C1118.289917,177.608841 1118.289917,184.013397 1118.289917,191.000000 C1120.958496,191.000000 1123.726074,191.000000 1126.493652,191.000000 C1143.817139,191.000000 1161.140747,191.054459 1178.463867,190.973282 C1185.430176,190.940628 1188.586060,193.949356 1188.128906,200.467575 C1187.582642,208.258118 1187.808228,216.122162 1188.048828,223.943619 C1188.346802,233.627304 1185.958252,232.401352 1178.013916,233.887985 C1174.473389,234.550552 1170.705688,234.000000 1167.041138,234.000000 C1138.557373,234.000000 1110.072876,234.132355 1081.590332,233.943146 C1067.716553,233.851013 1067.359741,232.234604 1067.127808,219.361969 C1066.686890,194.883911 1067.000000,170.392242 1067.000000,145.906235 C1067.000000,138.427292 1067.000000,130.948349 1067.000000,123.469414 C1067.000000,110.648155 1066.933594,97.826302 1067.046387,85.006035 C1067.074829,81.768867 1066.826416,78.065010 1068.278687,75.449211 C1069.474365,73.295441 1072.848511,71.848244 1075.532104,71.161476 C1078.346069,70.441292 1081.487427,70.999580 1084.485718,71.000092 C1116.967041,71.005646 1149.448486,71.011406 1182.357056,71.138062 z"/>
  <path fill="#FFFFFF" opacity="1.000000" stroke="none" d=" M550.000671,234.000000 C537.035217,234.209869 524.712830,233.571198 512.550781,230.223083 C493.839172,225.071915 484.061676,209.655670 483.952179,191.776199 C483.822113,170.533951 482.803467,149.283218 483.231110,128.057541 C483.434540,117.961365 482.909363,107.646568 486.567535,97.681297 C490.511688,86.937202 497.991180,80.220665 508.116364,76.066772 C517.710876,72.130592 527.940491,71.160133 538.184265,71.053658 C556.506409,70.863197 574.831909,70.995682 593.156006,71.001907 C601.728638,71.004822 603.000000,72.297729 603.000000,80.939293 C603.000000,89.601593 603.016724,98.263931 602.994080,106.926170 C602.978821,112.766525 601.725830,113.989311 595.747559,113.995117 C580.588562,114.009827 565.426636,113.839958 550.272522,114.113098 C546.506897,114.180969 542.431580,114.974907 539.092224,116.631638 C533.946716,119.184418 534.192261,124.851547 534.106934,129.571625 C533.823792,145.225266 533.700439,160.896286 534.173035,176.540771 C534.325134,181.575821 533.576843,187.991974 540.641235,190.139206 C541.849487,190.506439 543.102844,190.948822 544.339539,190.961868 C551.662170,191.039108 558.986084,190.999969 567.000000,190.999969 C567.000000,182.667847 566.970947,174.419846 567.011841,166.172180 C567.033264,161.852615 566.886169,157.501541 567.358032,153.224594 C567.735657,149.802216 570.014526,147.953827 573.724365,147.974167 C586.217712,148.042679 598.712036,147.941177 611.205078,148.031006 C615.810242,148.064117 617.968384,150.342697 617.978088,155.092911 C618.026245,178.580963 618.024658,202.069214 617.982727,225.557297 C617.972229,231.449646 615.777649,233.760269 607.469788,233.899490 C588.484802,234.217590 569.490845,234.000000 550.000671,234.000000 z"/>
  <path fill="#FFFFFF" opacity="1.000000" stroke="none" d=" M102.793793,138.000000 C110.991745,138.004349 111.999695,139.033096 111.999931,146.916672 C112.000198,155.413406 112.000420,163.910141 111.999870,172.406876 C111.999428,179.283493 110.369858,180.955276 103.306717,180.986145 C91.644753,181.037125 79.982407,181.000092 68.320221,181.000137 C67.360023,181.000137 66.399818,181.000122 65.000000,181.000122 C65.000000,195.455688 64.863098,209.567062 65.051697,223.674072 C65.163620,232.045990 62.536053,233.466141 55.344742,233.854584 C44.879311,234.419907 34.341831,234.383743 23.871016,233.870651 C16.364567,233.502823 13.931583,231.818420 13.948627,223.891922 C14.051793,175.910583 14.116075,127.928276 13.852185,79.948181 C13.819427,73.992172 16.956141,70.971474 23.050623,70.979553 C55.704681,71.022858 88.358833,70.988159 121.012932,71.009193 C128.242538,71.013847 130.728470,73.221336 130.942734,80.502151 C131.187668,88.825073 131.288803,97.174362 130.897186,105.486046 C130.638992,110.965950 128.044327,114.277870 122.154716,114.150688 C103.342842,113.744499 84.516678,114.000000 65.348083,114.000000 C65.348083,121.821289 65.348083,129.562561 65.348083,138.000000 C77.498611,138.000000 89.910370,138.000000 102.793793,138.000000 z"/>
  <path fill="#FFFFFF" opacity="1.000000" stroke="none" d=" M956.000000,356.999634 C955.581238,365.889160 956.300537,374.533478 954.492737,382.612305 C951.310791,396.832031 940.667419,404.180664 926.821899,405.798828 C915.537659,407.117645 904.048401,406.821625 892.646606,406.960175 C878.826721,407.128113 865.003113,407.001099 851.181152,406.999451 C844.911804,406.998718 843.167542,405.320953 843.018188,398.900116 C842.921448,394.739136 843.000000,390.574036 843.000000,386.410797 C843.000000,353.271362 842.998230,320.131897 843.001221,286.992462 C843.002014,278.311707 845.309570,276.003204 853.983643,276.001251 C872.135376,275.997162 890.305237,275.511200 908.432190,276.181671 C919.468384,276.589874 930.715515,276.755524 940.911987,282.852417 C949.158325,287.783203 954.162415,294.935486 954.754639,303.826141 C955.920959,321.333954 955.666626,338.936432 956.000000,356.999634 M884.000000,324.517944 C884.000000,340.588684 884.000000,356.659393 884.000000,373.000000 C891.970032,373.000000 899.425110,373.011627 906.880249,372.995880 C911.710510,372.985657 914.936340,370.089722 914.965088,365.303619 C915.058105,349.836975 915.043762,334.369202 914.966614,318.902374 C914.949097,315.389893 913.739563,312.362640 909.640320,311.944031 C905.265015,311.497223 900.865906,311.083862 896.473450,311.041809 C884.000732,310.922455 884.000000,311.000000 884.000000,324.517944 z"/>
  <path fill="#FFFFFF" opacity="1.000000" stroke="none" d=" M695.000000,288.079742 C695.000000,276.710419 695.715271,275.977570 706.693604,276.011261 C711.345642,276.025513 716.023987,275.875427 720.643372,276.305420 C730.103455,277.186035 733.975220,285.570587 739.609253,291.349274 C746.107605,298.014557 751.867188,305.399445 757.961365,312.459930 C760.234680,315.093689 762.546997,317.693787 766.000000,319.834290 C766.000000,309.113464 766.141113,298.390198 765.956421,287.672577 C765.801392,278.674774 768.477417,275.702942 777.809875,275.965942 C784.134766,276.144196 790.468872,275.982147 796.798767,276.004608 C804.310181,276.031219 806.906860,278.256073 806.946960,285.783813 C807.084656,311.602600 806.999878,337.422577 806.999878,363.242096 C806.999878,374.209259 807.062744,385.177002 806.953491,396.143097 C806.927856,398.709869 806.763794,401.453003 805.814819,403.767029 C805.232605,405.186493 803.061279,406.817413 801.562805,406.858276 C791.575562,407.130493 781.576721,407.064941 771.582947,406.972534 C766.456177,406.925140 766.431152,402.679565 766.092468,399.287262 C765.697205,395.328857 765.517395,391.227966 766.106934,387.319000 C767.133423,380.512604 764.467285,375.480652 760.170288,370.579773 C751.941406,361.194427 744.043396,351.518982 735.372559,341.208099 C735.206055,343.400146 735.014832,344.756165 735.013367,346.112335 C734.993286,363.936127 735.006958,381.759949 734.996277,399.583740 C734.992493,405.871582 733.873047,406.986572 727.590637,406.996552 C718.928589,407.010315 710.266541,407.006317 701.604492,406.997833 C695.481934,406.991821 695.003967,406.530701 695.002991,400.507416 C694.997131,363.194031 695.000000,325.880646 695.000000,288.079742 z"/>
  <path fill="#FFFFFF" opacity="1.000000" stroke="none" d=" M985.969360,234.000000 C977.975342,234.000000 970.453796,234.365662 962.982849,233.906784 C953.795227,233.342438 951.064209,232.529938 951.034668,221.765030 C950.940979,187.602615 951.000000,153.439758 951.000000,119.277077 C951.000000,117.647682 951.000000,116.018288 951.000000,114.000000 C939.838684,114.000000 929.053833,114.001122 918.268982,113.999573 C911.693726,113.998627 910.011902,112.278122 910.002747,105.495018 C909.991333,96.996025 909.997253,88.497002 910.000793,79.997993 C910.003662,73.131546 912.077942,71.017006 919.004089,71.008537 C938.835144,70.984276 958.666138,71.000000 978.497192,71.000000 C997.494934,71.000000 1016.492737,70.992287 1035.490479,71.003670 C1043.459595,71.008446 1044.998535,72.546280 1044.999756,80.396347 C1045.001099,89.395294 1044.961914,98.394478 1045.016235,107.393097 C1045.043213,111.878754 1042.947876,114.023445 1038.450562,114.013451 C1027.285767,113.988647 1016.120728,114.031540 1004.955811,114.057053 C1004.816101,114.057365 1004.676575,114.187149 1004.000000,114.523270 C1004.000000,116.017227 1004.000000,117.787247 1004.000000,119.557259 C1004.000000,153.719940 1003.961060,187.882706 1004.025146,222.045273 C1004.043030,231.565521 1002.274475,233.762970 991.963135,233.994171 C990.131042,234.035248 988.297180,234.000000 985.969360,234.000000 z"/>
  <path fill="#FFFFFF" opacity="1.000000" stroke="none" d=" M582.283325,276.000000 C596.081360,276.000000 609.410828,276.000000 622.740295,276.000000 C633.966431,276.000000 636.186646,277.548737 639.976868,287.773682 C645.428528,302.480774 651.382141,317.022583 656.223877,331.926514 C658.793457,339.836182 660.316589,348.311432 660.803284,356.619751 C661.551331,369.388824 661.056885,382.234497 660.954529,395.046570 C660.932678,397.780060 660.837891,400.718933 659.821350,403.166351 C659.140137,404.806549 656.807129,406.776703 655.154724,406.831421 C645.002136,407.167450 634.832764,406.977905 624.669189,407.011902 C621.282288,407.023224 619.959290,405.308105 619.982422,402.068085 C620.037170,394.404022 619.908203,386.737671 620.046021,379.075684 C620.099731,376.092316 619.119324,374.904907 616.024109,374.949982 C606.548340,375.087982 597.069275,375.000122 587.000000,375.000122 C587.000000,382.281006 586.920776,389.378174 587.017334,396.472931 C587.191467,409.265259 585.206116,407.018127 576.329102,407.002411 C569.497742,406.990356 562.663330,406.870697 555.835815,407.032898 C547.378723,407.233765 547.709045,406.028290 547.310303,399.523376 C546.374390,384.251892 546.358582,368.848724 547.188049,353.564911 C548.069946,337.315308 554.929932,322.515442 560.815918,307.573608 C563.867798,299.826508 567.496277,292.244080 569.781677,284.276703 C571.695374,277.605286 576.302307,276.553925 582.283325,276.000000 M600.525757,342.000000 C606.181824,342.000000 611.837830,342.000000 617.635010,342.000000 C614.948914,332.961334 612.615295,323.964569 609.435486,315.277557 C608.712158,313.301392 605.145935,311.531036 602.726135,311.289307 C600.964111,311.113281 597.815552,313.222229 597.214600,314.974243 C594.212524,323.726959 591.847778,332.698273 589.140320,342.000000 C592.645325,342.000000 596.091675,342.000000 600.525757,342.000000 z"/>
  <path fill="#FFFFFF" opacity="1.000000" stroke="none" d=" M632.998169,140.925842 C634.502197,126.361443 639.797729,113.703293 648.190369,102.405495 C655.396729,92.704590 664.031860,84.549881 674.758850,78.586433 C690.917053,69.603577 707.818665,66.274094 726.265198,68.820938 C740.595093,70.799416 753.110901,76.162827 764.453674,84.840736 C779.978271,96.717903 790.173279,112.188614 794.878052,131.059235 C796.634033,138.102386 797.968445,145.511276 797.825134,152.720184 C797.320068,178.122849 787.781799,199.855408 768.610962,216.719971 C756.540405,227.338440 742.289551,233.817123 726.161438,236.043106 C703.046326,239.233444 682.620239,233.174042 664.395264,218.906738 C646.414795,204.830811 635.806519,186.463730 633.134521,163.838470 C632.262024,156.450272 632.996826,148.872223 632.998169,140.925842 M766.035278,114.402390 C762.661987,110.743042 759.514832,106.839661 755.876038,103.466713 C740.344299,89.069710 721.764465,85.394638 701.512939,89.083282 C686.163940,91.878967 674.082520,100.511955 664.886414,112.762878 C651.530151,130.555771 647.776184,150.751404 654.586853,171.798035 C661.933716,194.501694 677.252502,209.410278 701.262024,215.198975 C721.462952,220.069412 738.826294,214.561020 754.575806,202.674850 C762.262451,196.873749 768.169189,189.148056 772.055969,179.996109 C781.703552,157.279251 780.601074,135.611038 766.035278,114.402390 z"/>
  <path fill="#FFFFFF" opacity="1.000000" stroke="none" d=" M453.000000,312.000000 C453.000000,332.466187 453.000000,352.432373 453.000000,372.698975 C461.251465,372.698975 469.320892,372.698975 478.000000,372.698975 C478.000000,364.238220 478.054535,355.649048 477.984314,347.060913 C477.917206,338.850769 479.913300,336.952942 487.848053,336.992432 C495.008972,337.028107 502.170532,336.958038 509.331238,337.011963 C516.266541,337.064209 517.995850,338.839355 517.998169,345.727417 C518.003784,362.880768 518.004639,380.034088 517.997986,397.187439 C517.994690,405.603607 516.638184,407.000000 508.533630,407.000000 C478.889984,407.000031 449.246338,407.003113 419.602692,406.997589 C413.063873,406.996368 412.002686,405.916840 412.001984,399.280609 C411.997925,361.143555 412.116821,323.005768 411.866852,284.870361 C411.831635,279.499054 414.056610,276.457855 418.665375,276.303467 C428.214844,275.983643 437.794495,276.678864 447.363678,276.789215 C452.473480,276.848206 453.023895,280.092102 453.010193,284.021454 C452.978241,293.180878 453.000000,302.340485 453.000000,312.000000 z"/>
  <path fill="#FFFFFF" opacity="1.000000" stroke="none" d=" M855.247375,247.252853 C844.810730,258.001923 844.243103,258.022064 834.035706,247.546143 C814.344604,227.336945 818.262146,236.218323 818.057739,208.953018 C817.812927,176.297226 818.000000,143.638199 818.000000,110.980576 C818.000000,109.384743 818.000000,107.788902 818.000000,105.211845 C819.738953,106.611778 820.753723,107.299812 821.614990,108.144409 C825.300842,111.758858 828.387146,116.424858 832.732422,118.820183 C838.764648,122.145393 839.156677,126.612686 839.106201,132.481140 C838.867981,160.138092 838.999756,187.798233 839.000122,215.457245 C839.000183,221.511978 840.686401,224.074051 844.618713,223.999496 C848.474304,223.926392 850.000000,221.438034 850.000000,215.219803 C850.000183,186.061218 850.027283,156.902557 849.958435,127.744125 C849.951477,124.786407 850.481140,122.872162 853.267822,120.907646 C857.941406,117.612984 861.876282,113.269928 866.118347,109.364090 C867.405273,108.179207 868.680359,106.981430 870.705811,105.096100 C870.838257,107.626785 870.989258,109.172447 870.989807,110.718155 C871.002869,148.874252 870.956421,187.030487 871.058777,225.186310 C871.070679,229.627396 869.502991,233.058640 866.466614,236.058151 C862.792297,239.687775 859.152344,243.352219 855.247375,247.252853 z"/>
  <path fill="#FFFFFF" opacity="1.000000" stroke="none" d=" M797.000000,94.688087 C797.000000,88.895844 796.945923,83.568764 797.015686,78.243301 C797.081299,73.237984 799.188599,71.029572 804.134644,71.021355 C831.099304,70.976540 858.064209,70.972778 885.028870,71.025696 C889.769653,71.034996 891.892334,73.196243 891.975464,77.907646 C892.078125,83.731552 891.871155,89.562500 892.044556,95.383057 C892.163391,99.372131 890.685059,102.641869 886.702759,102.549866 C883.022156,102.464844 881.364319,99.335754 881.977478,95.455978 C882.128723,94.498924 882.000000,93.497612 882.000000,92.001350 C877.550903,92.001350 873.262512,91.843147 868.999023,92.099358 C867.747192,92.174583 866.362732,93.217392 865.385803,94.171707 C859.793213,99.634682 854.228943,105.131454 848.810913,110.766594 C845.717957,113.983505 843.055420,113.833611 840.079407,110.665352 C836.663208,107.028358 832.543518,103.943375 829.641785,99.954788 C823.882141,92.037788 816.333252,90.565666 807.072266,92.512802 C806.498718,96.136780 808.754456,102.113518 802.555664,102.620239 C798.652710,102.939270 796.463257,99.456909 797.000000,94.688087 z"/>
  <path fill="#FFFFFF" opacity="1.000000" stroke="none" d=" M862.389343,21.885082 C867.712219,27.847340 865.489136,37.985275 855.000000,39.353561 C855.000000,42.792107 855.000000,46.271072 855.000000,49.750042 C855.000000,53.036819 855.000000,56.323601 855.000000,59.798439 C847.879150,59.798439 841.148071,59.798439 834.159912,59.798439 C834.159912,53.026714 834.159912,46.419662 834.159912,40.500549 C830.816589,38.240253 827.488586,36.741150 825.310059,34.240627 C823.967102,32.699127 823.988403,29.615265 824.078674,27.249861 C824.289612,21.721510 839.650269,7.690905 845.148499,8.119127 C847.213318,8.279944 849.535461,9.379469 851.108887,10.767025 C854.967468,14.169920 858.458679,17.989407 862.389343,21.885082 z"/>
  <path fill="#FFFFFF" opacity="1.000000" stroke="none" d=" M700.338257,171.833771 C696.341248,167.939682 693.020447,164.209732 691.738953,158.768417 C691.149902,156.267685 688.462585,154.261154 687.489258,153.010406 C689.065857,149.811600 690.734314,146.577042 692.269348,143.280411 C695.310608,136.748764 700.032898,132.023956 706.626343,129.005615 C709.674927,127.610001 712.445557,125.607117 714.702515,124.261070 C717.439941,125.789314 720.469666,127.581238 723.588501,129.201614 C730.665833,132.878494 735.980530,137.865952 738.178772,145.963501 C738.861267,148.477722 741.437866,150.477753 742.785522,152.239960 C739.382935,157.710571 736.590637,164.354919 731.898376,169.133636 C727.274780,173.842392 720.726440,176.661240 715.256897,180.159470 C710.668457,177.626114 705.642395,174.851135 700.338257,171.833771 M702.019592,160.091385 C707.194885,169.217316 722.138367,170.052979 727.536926,159.986389 C730.211670,154.998962 730.703064,149.823486 727.903687,144.878433 C725.071777,139.875793 720.287537,136.804337 714.643250,137.149292 C703.887573,137.806671 696.113525,149.459442 702.019592,160.091385 z"/>
  <path fill="#FFFFFF" opacity="1.000000" stroke="none" d=" M667.990723,177.893570 C665.598694,170.973251 663.242249,164.437210 660.589233,157.078674 C667.639099,157.323486 673.379089,155.356537 678.101379,159.653900 C680.020325,161.400223 681.909790,163.392761 683.141663,165.640945 C687.068359,172.807526 691.188049,179.704056 699.210449,183.007599 C707.199707,186.297516 710.850891,192.135895 710.025146,200.784546 C709.852417,202.593796 710.000000,204.433624 710.000000,206.266800 C694.455627,205.286179 676.994568,195.081207 669.282166,179.804489 C668.992432,179.230515 668.450623,178.783844 667.990723,177.893570 z"/>
  <path fill="#FFFFFF" opacity="1.000000" stroke="none" d=" M729.626587,183.765747 C737.788147,179.495026 743.130920,173.041733 746.913879,165.276672 C748.851501,161.299393 754.134583,157.076965 758.285156,157.010056 C761.426086,156.959381 764.568542,157.000015 767.729675,157.000015 C765.778137,185.537781 741.775269,205.290100 720.518982,205.857483 C718.378967,194.285980 721.639221,185.637726 729.626587,183.765747 z"/>
  <path fill="#FFFFFF" opacity="1.000000" stroke="none" d=" M681.244995,143.255295 C675.357056,147.486359 669.028442,147.418747 661.948303,146.744522 C663.009277,133.871155 668.613159,122.980911 677.151733,113.880905 C685.755554,104.711403 697.055298,99.998886 709.775513,98.224037 C709.967285,104.757111 711.452515,111.528412 706.340637,117.198433 C705.643188,117.972084 704.993835,119.061211 704.108093,119.351830 C692.344116,123.211731 685.643555,131.848480 681.244995,143.255295 z"/>
  <path fill="#FFFFFF" opacity="1.000000" stroke="none" d=" M731.203247,121.677094 C719.004578,117.794533 719.331848,109.760208 720.321167,98.243721 C749.347473,102.242958 765.093689,123.719147 768.031128,148.017181 C762.194580,146.866592 756.664185,146.099289 751.362793,144.549026 C749.603210,144.034515 747.964233,141.730576 747.074280,139.861786 C743.521179,132.400650 739.082520,125.827538 731.203247,121.677094 z"/>
  <path fill="#FFFFFF" opacity="1.000000" stroke="none" d=" M716.634033,148.010910 C717.699707,149.992325 718.940002,152.012466 718.783386,153.917770 C718.691223,155.038742 716.370178,156.798859 715.070557,156.782333 C713.572266,156.763290 711.521973,155.442520 710.720825,154.089417 C708.707458,150.688828 711.134216,148.142990 716.634033,148.010910 z"/>
</svg>