<?xml version="1.0" encoding="utf-8"?>
<svg viewBox="0 0 220 79.6" xmlns="http://www.w3.org/2000/svg">
  <path opacity="1.000000" d="M 189.248 29.682 C 189.248 26.822 189.241 24.037 189.25 21.251 C 189.256 19.612 189.621 19.354 191.11 19.382 C 192.03 19.398 192.951 19.375 193.871 19.388 C 194.776 19.4 195.493 19.692 196.108 20.458 C 197.274 21.909 198.571 23.253 199.806 24.649 C 200.63 25.578 201.44 26.52 202.404 27.625 C 202.465 27.153 202.524 26.906 202.525 26.66 C 202.533 24.745 202.531 22.83 202.529 20.915 C 202.527 19.787 202.938 19.383 204.056 19.384 C 205.598 19.386 207.14 19.393 208.682 19.381 C 209.411 19.375 210.002 19.695 210 20.69 C 209.983 27.927 209.991 35.163 209.991 42.4 C 209.991 43.388 209.612 43.634 208.542 43.689 C 207.029 43.768 205.509 43.73 203.992 43.702 C 202.867 43.681 202.535 43.31 202.53 42.189 C 202.527 41.443 202.57 40.691 202.55 39.954 C 202.511 38.527 202.052 37.613 201.229 36.649 C 199.807 34.983 198.435 33.277 197.039 31.589 C 196.995 31.537 196.924 31.507 196.709 31.36 C 196.709 31.718 196.709 31.966 196.709 32.213 C 196.709 35.545 196.709 38.877 196.709 42.21 C 196.709 43.268 196.606 43.576 195.611 43.638 C 193.888 43.746 192.145 43.724 190.424 43.586 C 189.453 43.508 189.25 43.078 189.249 42.066 C 189.246 37.963 189.248 33.859 189.248 29.682 Z M 40.615 44.157 C 38.027 44.152 35.54 43.921 33.256 42.787 C 31.618 41.973 30.627 40.601 30.475 38.734 C 30.38 37.558 30.331 36.375 30.324 35.195 C 30.304 31.915 30.274 28.634 30.345 25.355 C 30.365 24.44 30.588 23.476 30.95 22.635 C 31.709 20.874 33.31 20.068 35.036 19.545 C 37.761 18.718 40.587 18.816 43.369 18.984 C 45.237 19.097 47.117 19.469 48.773 20.558 C 50.421 21.643 51.146 23.225 51.183 25.061 C 51.268 29.333 51.276 33.61 51.184 37.883 C 51.132 40.306 50.123 42.12 47.487 43.131 C 46.09 43.667 44.671 43.953 43.188 44.011 C 42.354 44.044 41.522 44.107 40.615 44.157 M 43.231 25.954 C 41.807 25.107 40.291 25.311 38.819 25.694 C 38.29 25.832 37.916 26.381 37.921 27.07 C 37.938 30.048 37.917 33.027 37.936 36.005 C 37.941 36.725 38.238 37.252 39.031 37.466 C 40.185 37.778 41.341 37.731 42.481 37.544 C 43.286 37.412 43.598 36.863 43.599 35.999 C 43.599 33.021 43.608 30.042 43.586 27.064 C 43.584 26.723 43.408 26.384 43.231 25.954 Z M 69.117 41.163 C 69.117 39.773 69.12 38.455 69.116 37.138 C 69.113 36.221 68.695 35.803 67.775 35.801 C 66.309 35.798 64.842 35.801 63.376 35.803 C 63.329 35.804 63.282 35.82 63.148 35.846 C 63.148 37.136 63.148 38.443 63.148 39.75 C 63.148 40.496 63.148 41.242 63.148 41.988 C 63.148 43.296 63.028 43.608 61.809 43.67 C 60.017 43.76 58.212 43.607 56.413 43.565 C 55.598 43.546 55.584 42.91 55.552 42.376 C 55.499 41.485 55.537 40.588 55.537 39.693 C 55.537 33.478 55.544 27.264 55.532 21.05 C 55.529 19.8 55.92 19.371 57.227 19.378 C 60.906 19.397 64.586 19.332 68.263 19.415 C 69.447 19.442 70.661 19.716 71.795 20.081 C 73.442 20.609 74.154 22.058 74.451 23.597 C 74.756 25.172 74.792 26.789 74.364 28.396 C 74.13 29.272 73.61 29.828 72.851 30.328 C 73.205 30.467 73.505 30.627 73.825 30.703 C 75.66 31.142 76.724 33.095 76.727 34.74 C 76.732 37.225 76.728 39.711 76.728 42.197 C 76.728 43.352 76.741 43.516 75.681 43.602 C 73.91 43.745 72.115 43.743 70.341 43.628 C 69.364 43.565 69.178 43.164 69.12 42.131 C 69.103 41.834 69.117 41.535 69.117 41.163 M 67.177 27.942 C 67.177 27.545 67.242 27.134 67.162 26.753 C 67.041 26.178 66.935 25.538 66.121 25.493 C 65.151 25.44 64.182 25.361 63.202 25.292 C 63.202 26.883 63.202 28.353 63.202 29.831 C 63.927 29.831 64.597 29.831 65.267 29.831 C 65.342 29.831 65.417 29.839 65.491 29.83 C 66.553 29.696 67.167 29.611 67.177 27.942 Z M 184.377 19.405 C 185.05 19.55 185.236 19.95 185.225 20.537 C 185.203 21.754 185.198 22.973 185.224 24.191 C 185.252 25.503 185.251 25.71 183.617 25.773 C 180.937 25.878 178.249 25.802 175.564 25.802 C 175.322 25.802 175.079 25.802 174.805 25.802 C 174.805 26.661 174.805 27.467 174.805 28.339 C 176.906 28.339 178.987 28.338 181.067 28.339 C 182.141 28.339 182.531 28.722 182.532 29.777 C 182.533 30.92 182.539 32.064 182.53 33.207 C 182.524 33.994 182.21 34.303 181.412 34.306 C 179.227 34.312 177.043 34.308 174.816 34.308 C 174.816 35.294 174.816 36.25 174.816 37.292 C 175.214 37.292 175.627 37.292 176.04 37.292 C 178.625 37.292 181.21 37.301 183.796 37.288 C 184.835 37.284 185.306 37.733 185.238 38.705 C 185.156 39.868 185.19 41.041 185.226 42.209 C 185.27 43.654 184.914 43.471 183.728 43.693 C 183.2 43.791 182.638 43.709 182.091 43.709 C 177.84 43.709 173.59 43.729 169.339 43.701 C 167.269 43.687 167.215 43.446 167.181 41.525 C 167.115 37.872 167.162 34.217 167.162 30.563 C 167.162 29.447 167.162 28.331 167.162 27.215 C 167.162 25.301 167.152 23.388 167.169 21.475 C 167.173 20.992 167.136 20.439 167.353 20.049 C 167.531 19.727 168.034 19.511 168.435 19.409 C 168.855 19.301 169.324 19.385 169.771 19.385 C 174.618 19.386 179.466 19.386 184.377 19.405 Z M 90.01 43.709 C 88.075 43.741 86.236 43.645 84.421 43.146 C 81.629 42.377 80.17 40.076 80.153 37.408 C 80.134 34.238 79.982 31.067 80.046 27.899 C 80.076 26.393 79.998 24.854 80.544 23.366 C 81.132 21.763 82.248 20.761 83.759 20.141 C 85.191 19.553 86.718 19.409 88.246 19.393 C 90.981 19.364 93.715 19.384 96.45 19.385 C 97.729 19.385 97.919 19.578 97.919 20.868 C 97.919 22.161 97.921 23.453 97.918 24.746 C 97.916 25.618 97.729 25.8 96.836 25.801 C 94.574 25.803 92.312 25.778 90.05 25.819 C 89.488 25.829 88.88 25.947 88.382 26.194 C 87.614 26.575 87.651 27.421 87.638 28.125 C 87.596 30.461 87.577 32.8 87.648 35.135 C 87.67 35.886 87.559 36.843 88.613 37.164 C 88.793 37.219 88.98 37.285 89.165 37.287 C 90.258 37.298 91.351 37.292 92.546 37.292 C 92.546 36.049 92.542 34.818 92.548 33.587 C 92.551 32.943 92.529 32.293 92.6 31.655 C 92.656 31.144 92.996 30.869 93.55 30.872 C 95.414 30.882 97.279 30.867 99.143 30.88 C 99.83 30.885 100.153 31.225 100.154 31.934 C 100.161 35.439 100.161 38.944 100.155 42.449 C 100.153 43.329 99.826 43.674 98.586 43.694 C 95.753 43.742 92.918 43.709 90.01 43.709 Z M 23.273 29.383 C 24.496 29.384 24.647 29.537 24.647 30.714 C 24.647 31.982 24.647 33.25 24.647 34.518 C 24.647 35.544 24.403 35.793 23.349 35.798 C 21.609 35.806 19.869 35.8 18.128 35.8 C 17.985 35.8 17.842 35.8 17.633 35.8 C 17.633 37.957 17.612 40.063 17.64 42.168 C 17.657 43.418 17.265 43.63 16.192 43.688 C 14.63 43.772 13.058 43.767 11.495 43.69 C 10.375 43.635 10.012 43.384 10.014 42.201 C 10.03 35.041 10.039 27.88 10 20.72 C 9.995 19.831 10.463 19.38 11.373 19.382 C 16.246 19.388 21.119 19.383 25.992 19.386 C 27.07 19.387 27.441 19.716 27.473 20.803 C 27.51 22.045 27.525 23.291 27.467 24.531 C 27.428 25.349 27.041 25.843 26.162 25.824 C 23.355 25.764 20.545 25.802 17.685 25.802 C 17.685 26.969 17.685 28.124 17.685 29.383 C 19.498 29.383 21.35 29.383 23.273 29.383 Z M 150.597 62.065 C 150.535 63.391 150.642 64.681 150.372 65.887 C 149.897 68.009 148.309 69.105 146.243 69.347 C 144.559 69.544 142.844 69.5 141.143 69.52 C 139.081 69.545 137.018 69.526 134.955 69.526 C 134.019 69.526 133.759 69.276 133.737 68.317 C 133.722 67.696 133.734 67.075 133.734 66.454 C 133.734 61.508 133.734 56.563 133.734 51.617 C 133.734 50.322 134.079 49.977 135.373 49.977 C 138.082 49.977 140.793 49.904 143.499 50.004 C 145.146 50.065 146.824 50.09 148.346 51 C 149.576 51.735 150.323 52.803 150.411 54.129 C 150.585 56.742 150.547 59.369 150.597 62.065 M 139.853 57.217 C 139.853 59.616 139.853 62.014 139.853 64.452 C 141.042 64.452 142.154 64.454 143.267 64.452 C 143.988 64.45 144.469 64.018 144.473 63.304 C 144.487 60.996 144.485 58.687 144.474 56.379 C 144.471 55.855 144.291 55.403 143.679 55.341 C 143.026 55.274 142.369 55.213 141.714 55.206 C 139.853 55.188 139.853 55.2 139.853 57.217 Z M 111.648 51.78 C 111.648 50.083 111.755 49.974 113.393 49.979 C 114.087 49.981 114.785 49.958 115.475 50.023 C 116.886 50.154 117.464 51.405 118.305 52.268 C 119.275 53.262 120.134 54.364 121.044 55.418 C 121.383 55.811 121.728 56.199 122.243 56.518 C 122.243 54.919 122.264 53.318 122.237 51.719 C 122.214 50.376 122.613 49.933 124.006 49.972 C 124.95 49.998 125.895 49.974 126.839 49.978 C 127.96 49.982 128.348 50.314 128.354 51.437 C 128.374 55.29 128.362 59.143 128.362 62.996 C 128.362 64.633 128.371 66.27 128.355 67.906 C 128.351 68.289 128.327 68.698 128.185 69.044 C 128.098 69.256 127.774 69.499 127.55 69.505 C 126.06 69.546 124.568 69.536 123.076 69.522 C 122.311 69.515 122.308 68.881 122.257 68.375 C 122.198 67.784 122.268 67.179 122.259 66.589 C 122.244 65.552 122.015 64.823 121.373 64.091 C 120.145 62.691 118.967 61.247 117.673 59.708 C 117.648 60.035 117.619 60.237 117.619 60.44 C 117.616 63.1 117.618 65.76 117.617 68.419 C 117.616 69.358 117.449 69.524 116.512 69.526 C 115.219 69.528 113.926 69.527 112.634 69.526 C 111.72 69.525 111.649 69.456 111.648 68.557 C 111.648 62.989 111.648 57.421 111.648 51.78 Z M 155.069 43.709 C 153.877 43.709 152.754 43.764 151.639 43.695 C 150.268 43.611 149.861 43.49 149.856 41.883 C 149.842 36.785 149.851 31.687 149.851 26.589 C 149.851 26.346 149.851 26.103 149.851 25.802 C 148.185 25.802 146.576 25.802 144.967 25.802 C 143.985 25.801 143.734 25.545 143.733 24.532 C 143.731 23.264 143.732 21.996 143.733 20.727 C 143.733 19.703 144.043 19.387 145.076 19.386 C 148.036 19.382 150.995 19.385 153.954 19.385 C 156.789 19.385 159.625 19.384 162.46 19.385 C 163.649 19.386 163.878 19.615 163.879 20.787 C 163.879 22.13 163.873 23.473 163.881 24.816 C 163.885 25.485 163.572 25.805 162.901 25.804 C 161.235 25.8 159.569 25.806 157.903 25.81 C 157.882 25.81 157.861 25.83 157.76 25.88 C 157.76 26.103 157.76 26.367 157.76 26.631 C 157.76 31.729 157.754 36.827 157.764 41.925 C 157.767 43.346 157.503 43.674 155.964 43.708 C 155.691 43.715 155.417 43.709 155.069 43.709 Z M 94.827 49.977 C 96.886 49.977 98.875 49.977 100.865 49.977 C 102.54 49.977 102.871 50.208 103.437 51.734 C 104.25 53.929 105.139 56.099 105.861 58.323 C 106.245 59.503 106.472 60.768 106.545 62.008 C 106.656 63.913 106.583 65.83 106.567 67.742 C 106.564 68.15 106.55 68.589 106.398 68.954 C 106.297 69.199 105.948 69.493 105.702 69.501 C 104.187 69.551 102.669 69.523 101.152 69.528 C 100.647 69.53 100.45 69.274 100.453 68.79 C 100.461 67.646 100.442 66.502 100.463 65.359 C 100.471 64.914 100.324 64.737 99.862 64.743 C 98.448 64.764 97.034 64.751 95.531 64.751 C 95.531 65.837 95.519 66.896 95.534 67.955 C 95.56 69.864 95.263 69.529 93.939 69.527 C 92.919 69.525 91.899 69.507 90.88 69.531 C 89.618 69.561 89.668 69.381 89.608 68.41 C 89.469 66.131 89.466 63.833 89.59 61.552 C 89.722 59.127 90.745 56.918 91.624 54.689 C 92.079 53.533 92.621 52.401 92.962 51.212 C 93.247 50.217 93.935 50.06 94.827 49.977 M 97.55 59.826 C 98.394 59.826 99.238 59.826 100.103 59.826 C 99.702 58.477 99.354 57.135 98.879 55.838 C 98.771 55.543 98.239 55.279 97.878 55.243 C 97.615 55.217 97.145 55.532 97.055 55.793 C 96.607 57.099 96.255 58.438 95.85 59.826 C 96.374 59.826 96.888 59.826 97.55 59.826 Z M 102.395 29.82 C 102.62 27.646 103.41 25.757 104.663 24.071 C 105.738 22.624 107.027 21.407 108.627 20.517 C 111.039 19.176 113.561 18.679 116.314 19.06 C 118.452 19.355 120.32 20.155 122.013 21.45 C 124.329 23.223 125.851 25.531 126.553 28.347 C 126.815 29.398 127.014 30.504 126.993 31.58 C 126.917 35.371 125.494 38.614 122.633 41.131 C 120.832 42.715 118.705 43.682 116.298 44.014 C 112.849 44.49 109.801 43.586 107.081 41.457 C 104.398 39.356 102.815 36.615 102.416 33.239 C 102.286 32.137 102.395 31.006 102.395 29.82 M 122.249 25.862 C 121.745 25.316 121.276 24.733 120.733 24.23 C 118.415 22.081 115.642 21.533 112.62 22.083 C 110.329 22.5 108.526 23.789 107.154 25.617 C 105.161 28.272 104.601 31.286 105.617 34.427 C 106.713 37.815 109 40.04 112.582 40.904 C 115.597 41.63 118.188 40.808 120.539 39.035 C 121.686 38.169 122.567 37.016 123.147 35.65 C 124.587 32.26 124.422 29.027 122.249 25.862 Z M 75.534 55.349 C 75.534 58.403 75.534 61.383 75.534 64.407 C 76.766 64.407 77.97 64.407 79.265 64.407 C 79.265 63.145 79.273 61.863 79.263 60.581 C 79.253 59.356 79.55 59.073 80.735 59.079 C 81.803 59.084 82.872 59.074 83.941 59.082 C 84.976 59.09 85.234 59.355 85.234 60.382 C 85.235 62.942 85.235 65.502 85.234 68.062 C 85.233 69.318 85.031 69.526 83.822 69.526 C 79.398 69.526 74.974 69.527 70.55 69.526 C 69.575 69.526 69.416 69.365 69.416 68.374 C 69.415 62.683 69.433 56.992 69.396 51.301 C 69.391 50.499 69.723 50.045 70.41 50.022 C 71.836 49.975 73.265 50.078 74.693 50.095 C 75.456 50.104 75.538 50.588 75.536 51.174 C 75.531 52.541 75.534 53.908 75.534 55.349 Z M 135.562 45.687 C 134.004 47.291 133.92 47.294 132.396 45.731 C 129.458 42.715 130.042 44.04 130.012 39.972 C 129.975 35.098 130.003 30.225 130.003 25.351 C 130.003 25.113 130.003 24.875 130.003 24.49 C 130.263 24.699 130.414 24.802 130.543 24.928 C 131.093 25.467 131.553 26.163 132.202 26.521 C 133.102 27.017 133.161 27.684 133.153 28.56 C 133.117 32.687 133.137 36.815 133.137 40.942 C 133.137 41.846 133.389 42.228 133.976 42.217 C 134.551 42.206 134.779 41.835 134.779 40.907 C 134.779 36.555 134.783 32.204 134.773 27.853 C 134.771 27.411 134.851 27.126 135.266 26.832 C 135.964 26.341 136.551 25.693 137.184 25.11 C 137.376 24.933 137.566 24.754 137.869 24.473 C 137.888 24.851 137.911 25.081 137.911 25.312 C 137.913 31.006 137.906 36.7 137.921 42.394 C 137.923 43.057 137.689 43.569 137.236 44.016 C 136.688 44.558 136.145 45.105 135.562 45.687 Z M 126.869 22.92 C 126.869 22.055 126.861 21.26 126.872 20.466 C 126.882 19.719 127.196 19.389 127.934 19.388 C 131.958 19.381 135.982 19.381 140.006 19.389 C 140.714 19.39 141.03 19.712 141.043 20.416 C 141.058 21.285 141.027 22.155 141.053 23.023 C 141.071 23.619 140.85 24.107 140.256 24.093 C 139.707 24.08 139.459 23.613 139.551 23.034 C 139.573 22.891 139.554 22.742 139.554 22.519 C 138.89 22.519 138.25 22.495 137.614 22.533 C 137.427 22.545 137.221 22.7 137.075 22.843 C 136.24 23.658 135.41 24.478 134.601 25.319 C 134.14 25.799 133.742 25.777 133.298 25.304 C 132.788 24.761 132.174 24.301 131.741 23.706 C 130.881 22.524 129.755 22.305 128.373 22.595 C 128.287 23.136 128.624 24.028 127.699 24.103 C 127.116 24.151 126.789 23.631 126.869 22.92 Z M 136.628 12.055 C 137.422 12.945 137.09 14.458 135.525 14.662 C 135.525 15.175 135.525 15.694 135.525 16.214 C 135.525 16.704 135.525 17.195 135.525 17.713 C 134.462 17.713 133.458 17.713 132.415 17.713 C 132.415 16.703 132.415 15.717 132.415 14.833 C 131.916 14.496 131.419 14.272 131.094 13.899 C 130.894 13.669 130.897 13.209 130.91 12.856 C 130.942 12.031 133.234 9.937 134.055 10.001 C 134.363 10.025 134.709 10.189 134.944 10.396 C 135.52 10.904 136.041 11.474 136.628 12.055 Z M 112.445 34.432 C 111.848 33.851 111.353 33.294 111.161 32.482 C 111.073 32.109 110.672 31.81 110.527 31.623 C 110.762 31.146 111.011 30.663 111.24 30.171 C 111.694 29.196 112.399 28.491 113.383 28.041 C 113.838 27.833 114.251 27.534 114.588 27.333 C 114.997 27.561 115.449 27.828 115.914 28.07 C 116.97 28.619 117.764 29.363 118.092 30.572 C 118.193 30.947 118.578 31.245 118.779 31.508 C 118.271 32.325 117.855 33.316 117.154 34.029 C 116.464 34.732 115.487 35.153 114.671 35.675 C 113.986 35.297 113.236 34.882 112.445 34.432 M 112.696 32.68 C 113.468 34.042 115.698 34.166 116.503 32.664 C 116.903 31.92 116.976 31.148 116.558 30.41 C 116.136 29.663 115.422 29.205 114.579 29.256 C 112.974 29.354 111.814 31.093 112.696 32.68 Z M 107.617 35.336 C 107.26 34.304 106.909 33.328 106.513 32.23 C 107.565 32.267 108.421 31.973 109.126 32.615 C 109.413 32.875 109.695 33.173 109.878 33.508 C 110.464 34.578 111.079 35.607 112.276 36.1 C 113.469 36.591 114.013 37.462 113.89 38.753 C 113.864 39.023 113.886 39.297 113.886 39.571 C 111.567 39.424 108.961 37.901 107.81 35.622 C 107.767 35.536 107.686 35.469 107.617 35.336 Z M 116.815 36.213 C 118.033 35.575 118.831 34.612 119.395 33.454 C 119.684 32.86 120.473 32.23 121.092 32.22 C 121.561 32.212 122.03 32.219 122.501 32.219 C 122.21 36.477 118.628 39.425 115.456 39.51 C 115.137 37.783 115.623 36.492 116.815 36.213 Z M 109.595 30.167 C 108.717 30.799 107.772 30.789 106.716 30.688 C 106.874 28.767 107.71 27.142 108.984 25.784 C 110.268 24.415 111.955 23.712 113.853 23.447 C 113.882 24.422 114.103 25.433 113.34 26.279 C 113.236 26.394 113.139 26.557 113.007 26.6 C 111.252 27.176 110.252 28.465 109.595 30.167 Z M 117.051 26.947 C 115.23 26.368 115.279 25.169 115.427 23.45 C 119.758 24.047 122.108 27.252 122.546 30.878 C 121.675 30.706 120.85 30.592 120.059 30.36 C 119.796 30.284 119.552 29.94 119.419 29.661 C 118.889 28.548 118.226 27.567 117.051 26.947 Z M 114.876 30.877 C 115.035 31.173 115.221 31.474 115.197 31.759 C 115.183 31.926 114.837 32.189 114.643 32.186 C 114.42 32.183 114.114 31.986 113.994 31.784 C 113.694 31.277 114.056 30.897 114.876 30.877 Z" style="fill: rgb(255, 255, 255);"/>
</svg>